<?xml version="1.0" encoding="UTF-8"?>
<svg width="5mm" height="5mm" version="1.1" viewBox="0 0 5 5" xmlns="http://www.w3.org/2000/svg">
 <defs>
  <filter id="filter1735" x="-.3217" y="-.3413" width="1.643" height="1.683" color-interpolation-filters="sRGB">
   <feGaussianBlur stdDeviation="2.296541"/>
  </filter>
 </defs>
 <g transform="translate(0,-292)">
  <path transform="matrix(.2646 0 0 .2646 0 292)" d="m9.492 1.375-0.8711 1.59-1.027 1.506 1.383-0.06055v3.32a1.786 1.786 0 0 0-1.256 1.277l-3.625 0.01562 0.06055-1.369-1.594 0.9727-1.682 0.8301 1.691 0.8145 1.604 0.959-0.07031-1.303 3.623-0.01367a1.786 1.786 0 0 0 1.248 1.256l0.01758 3.326-1.453-0.05664 1.033 1.502 0.8809 1.582 0.8633-1.594 1.018-1.512-1.381 0.06641-0.01758-3.32a1.786 1.786 0 0 0 1.236-1.254l3.621 0.0293-0.08008 1.367 1.607-0.9512 1.693-0.8086-1.678-0.8359-1.59-0.9785 0.05273 1.303-3.625-0.03125a1.786 1.786 0 0 0-1.238-1.271v-3.324l1.451 0.06445-1.025-1.508-0.8711-1.59z" fill="#fff" filter="url(#filter1735)" opacity=".98"/>
  <path transform="matrix(.2646 0 0 .2646 0 292)" d="m9.492 1.375-0.8711 1.59-1.027 1.506 1.383-0.06055v3.32a1.786 1.786 0 0 0-1.256 1.277l-3.625 0.01562 0.06055-1.369-1.594 0.9727-1.682 0.8301 1.691 0.8145 1.604 0.959-0.07031-1.303 3.623-0.01367a1.786 1.786 0 0 0 1.248 1.256l0.01758 3.326-1.453-0.05664 1.033 1.502 0.8809 1.582 0.8633-1.594 1.018-1.512-1.381 0.06641-0.01758-3.32a1.786 1.786 0 0 0 1.236-1.254l3.621 0.0293-0.08008 1.367 1.607-0.9512 1.693-0.8086-1.678-0.8359-1.59-0.9785 0.05273 1.303-3.625-0.03125a1.786 1.786 0 0 0-1.238-1.271v-3.324l1.451 0.06445-1.025-1.508-0.8711-1.59z" opacity=".98"/>
 </g>
</svg>
